<svg xmlns="http://www.w3.org/2000/svg" viewBox="0 0 128 128"><title>icon-editor_128x128</title><g id="Vector_Smart_Object_Image" data-name="Vector Smart Object Image"><rect x="26.86" y="23.97" width="39.02" height="34.23" rx="4.34" ry="4.34" style="fill:#e6e6e6"/><rect x="26.86" y="69.47" width="59.11" height="34.23" rx="4.34" ry="4.34" style="fill:#e6e6e6"/><path d="M109.52,126h-91A16.49,16.49,0,0,1,2,109.52v-91A16.49,16.49,0,0,1,18.48,2h92.78A14.76,14.76,0,0,1,126,16.74v5.49a4.34,4.34,0,0,1-8.67,0V16.74a6.08,6.08,0,0,0-6.07-6.07H18.48a7.81,7.81,0,0,0-7.8,7.8v91a7.81,7.81,0,0,0,7.8,7.8h91a7.81,7.81,0,0,0,7.8-7.8V65.33c0-4.2-5.25-7.8-9.54-7.8H90.45a4.34,4.34,0,1,1,0-8.67h17.34c8.6,0,18.21,7,18.21,16.48v44.19A16.49,16.49,0,0,1,109.52,126Z" style="fill:#e6e6e6"/></g><g id="icon" style="isolation:isolate"><g id="icon-2" data-name="icon"><path d="M98,44.07l-14-14c-2.37-2.37-6.65-2.37-8.66-.36S34.23,71,34.23,71l-6,28.72,28.65-6L98.18,52.51A6.25,6.25,0,0,0,98,44.07ZM41.19,73.3,70,44.43l5.46,5.51L46.91,79Zm13.5,13.48-5.57-5.56L77.93,52.4,83.44,58Z" style="fill:#f95b26;fill-rule:evenodd"/></g></g></svg>